<svg width="44" height="31" viewBox="0 0 44 31" fill="none" xmlns="http://www.w3.org/2000/svg">
<g id="flags / CN">
<rect id="Mask" width="43.4" height="31" rx="3.1" fill="white"/>
<mask id="mask0_1524_5612" style="mask-type:luminance" maskUnits="userSpaceOnUse" x="0" y="0" width="44" height="31">
<rect id="Mask_2" width="43.4" height="31" rx="3.1" fill="white"/>
</mask>
<g mask="url(#mask0_1524_5612)">
<rect id="Mask_3" width="43.4" height="31" fill="#F1361D"/>
<path id="Star 2" fill-rule="evenodd" clip-rule="evenodd" d="M15.6194 4.80636L17.1205 5.06227L18.2463 6.08759L18.5022 4.5865L19.5275 3.46067L18.0264 3.20476L16.9006 2.17944L16.6447 3.68053L15.6194 4.80636ZM19.6394 10.056L20.9402 9.26436L22.4626 9.29957L21.6709 7.99879L21.7061 6.47645L20.4053 7.26811L18.883 7.2329L19.6747 8.53368L19.6394 10.056ZM17.8759 18.5545L16.6036 19.3911L16.5856 17.8684L15.749 16.5961L17.2717 16.5781L18.544 15.7416L18.562 17.2642L19.3986 18.5366L17.8759 18.5545ZM18.9788 14.6189L20.4923 14.4512L21.8571 15.1264L21.6894 13.613L22.3647 12.2481L20.8512 12.4159L19.4864 11.7406L19.6541 13.2541L18.9788 14.6189Z" fill="#FFDC42"/>
<path id="Star 8" fill-rule="evenodd" clip-rule="evenodd" d="M10.3353 12.7511L6.69099 15.349L8.0356 11.0803L4.4387 8.41715L8.91399 8.37685L10.3353 4.13306L11.7565 8.37685L16.2318 8.41715L12.6349 11.0803L13.9795 15.349L10.3353 12.7511Z" fill="#FFDC42"/>
</g>
</g>
</svg>
